<mxfile host="Electron" agent="Mozilla/5.0 (X11; Linux x86_64) AppleWebKit/537.36 (KHTML, like Gecko) draw.io/24.7.17 Chrome/128.0.6613.36 Electron/32.0.1 Safari/537.36" version="24.7.17">
  <diagram name="Page-1" id="8vB6ywSrLT_YVHVRjJ6Y">
    <mxGraphModel dx="962" dy="663" grid="1" gridSize="10" guides="1" tooltips="1" connect="1" arrows="1" fold="1" page="1" pageScale="1" pageWidth="850" pageHeight="1100" math="0" shadow="0">
      <root>
        <mxCell id="0" />
        <mxCell id="1" parent="0" />
        <mxCell id="S9BE4qP7gg0h5COB0RpV-1" value="Internet" style="shape=mxgraph.cisco.storage.cloud;html=1;dashed=0;strokeColor=#23445D;fillColor=#ffffff;strokeWidth=2;fontFamily=Helvetica;fontSize=24;fontColor=#23445D;align=center;fontStyle=1" vertex="1" parent="1">
          <mxGeometry x="332" y="10" width="186" height="106" as="geometry" />
        </mxCell>
        <mxCell id="S9BE4qP7gg0h5COB0RpV-20" style="edgeStyle=none;shape=link;rounded=0;orthogonalLoop=1;jettySize=auto;html=1;exitX=0;exitY=0.5;exitDx=0;exitDy=0;exitPerimeter=0;" edge="1" parent="1" source="S9BE4qP7gg0h5COB0RpV-74" target="S9BE4qP7gg0h5COB0RpV-1">
          <mxGeometry relative="1" as="geometry">
            <mxPoint x="580" y="153.68298969072168" as="sourcePoint" />
          </mxGeometry>
        </mxCell>
        <mxCell id="S9BE4qP7gg0h5COB0RpV-22" style="edgeStyle=none;shape=link;rounded=0;orthogonalLoop=1;jettySize=auto;html=1;" edge="1" parent="1" source="S9BE4qP7gg0h5COB0RpV-75" target="S9BE4qP7gg0h5COB0RpV-74">
          <mxGeometry relative="1" as="geometry">
            <mxPoint x="464" y="248" as="sourcePoint" />
            <mxPoint x="580" y="194.59278350515467" as="targetPoint" />
          </mxGeometry>
        </mxCell>
        <mxCell id="S9BE4qP7gg0h5COB0RpV-90" value="192.168.255.1/30" style="edgeLabel;html=1;align=center;verticalAlign=middle;resizable=0;points=[];" vertex="1" connectable="0" parent="S9BE4qP7gg0h5COB0RpV-22">
          <mxGeometry x="0.6396" y="1" relative="1" as="geometry">
            <mxPoint as="offset" />
          </mxGeometry>
        </mxCell>
        <mxCell id="S9BE4qP7gg0h5COB0RpV-91" value="192.168.255.2/30" style="edgeLabel;html=1;align=center;verticalAlign=middle;resizable=0;points=[];" vertex="1" connectable="0" parent="S9BE4qP7gg0h5COB0RpV-22">
          <mxGeometry x="-0.8023" y="-1" relative="1" as="geometry">
            <mxPoint x="18" y="-3" as="offset" />
          </mxGeometry>
        </mxCell>
        <mxCell id="S9BE4qP7gg0h5COB0RpV-49" value="" style="edgeStyle=none;shape=link;rounded=0;orthogonalLoop=1;jettySize=auto;html=1;" edge="1" parent="1" source="S9BE4qP7gg0h5COB0RpV-75" target="S9BE4qP7gg0h5COB0RpV-30">
          <mxGeometry relative="1" as="geometry">
            <mxPoint x="424.23697241092646" y="293" as="sourcePoint" />
          </mxGeometry>
        </mxCell>
        <mxCell id="S9BE4qP7gg0h5COB0RpV-84" value="192.168.0.33/28" style="edgeLabel;html=1;align=center;verticalAlign=middle;resizable=0;points=[];" vertex="1" connectable="0" parent="S9BE4qP7gg0h5COB0RpV-49">
          <mxGeometry x="0.6442" y="1" relative="1" as="geometry">
            <mxPoint as="offset" />
          </mxGeometry>
        </mxCell>
        <mxCell id="S9BE4qP7gg0h5COB0RpV-51" value="" style="edgeStyle=none;shape=link;rounded=0;orthogonalLoop=1;jettySize=auto;html=1;" edge="1" parent="1" source="S9BE4qP7gg0h5COB0RpV-75" target="S9BE4qP7gg0h5COB0RpV-50">
          <mxGeometry relative="1" as="geometry">
            <mxPoint x="464" y="275.2865988436538" as="sourcePoint" />
          </mxGeometry>
        </mxCell>
        <mxCell id="S9BE4qP7gg0h5COB0RpV-87" value="192.168.0.65/26" style="edgeLabel;html=1;align=center;verticalAlign=middle;resizable=0;points=[];" vertex="1" connectable="0" parent="S9BE4qP7gg0h5COB0RpV-51">
          <mxGeometry x="0.581" y="1" relative="1" as="geometry">
            <mxPoint x="-4" as="offset" />
          </mxGeometry>
        </mxCell>
        <mxCell id="S9BE4qP7gg0h5COB0RpV-19" value="" style="edgeStyle=none;shape=link;rounded=0;orthogonalLoop=1;jettySize=auto;html=1;" edge="1" parent="1" source="S9BE4qP7gg0h5COB0RpV-73" target="S9BE4qP7gg0h5COB0RpV-1">
          <mxGeometry relative="1" as="geometry">
            <mxPoint x="288" y="151.34943181818176" as="sourcePoint" />
          </mxGeometry>
        </mxCell>
        <mxCell id="S9BE4qP7gg0h5COB0RpV-23" style="edgeStyle=none;shape=link;rounded=0;orthogonalLoop=1;jettySize=auto;html=1;" edge="1" parent="1" source="S9BE4qP7gg0h5COB0RpV-76" target="S9BE4qP7gg0h5COB0RpV-75">
          <mxGeometry relative="1" as="geometry">
            <mxPoint x="264.04516129032254" y="550" as="sourcePoint" />
            <mxPoint x="409.95483870967746" y="293" as="targetPoint" />
          </mxGeometry>
        </mxCell>
        <mxCell id="S9BE4qP7gg0h5COB0RpV-82" value="192.168.255.10/30" style="edgeLabel;html=1;align=center;verticalAlign=middle;resizable=0;points=[];" vertex="1" connectable="0" parent="S9BE4qP7gg0h5COB0RpV-23">
          <mxGeometry x="-0.0814" y="-1" relative="1" as="geometry">
            <mxPoint x="-38" y="46" as="offset" />
          </mxGeometry>
        </mxCell>
        <mxCell id="S9BE4qP7gg0h5COB0RpV-83" value="192.168.255.9/30" style="edgeLabel;html=1;align=center;verticalAlign=middle;resizable=0;points=[];" vertex="1" connectable="0" parent="S9BE4qP7gg0h5COB0RpV-23">
          <mxGeometry x="0.4654" y="-1" relative="1" as="geometry">
            <mxPoint x="-12" y="-8" as="offset" />
          </mxGeometry>
        </mxCell>
        <mxCell id="S9BE4qP7gg0h5COB0RpV-24" style="edgeStyle=none;shape=link;rounded=0;orthogonalLoop=1;jettySize=auto;html=1;" edge="1" parent="1" source="S9BE4qP7gg0h5COB0RpV-77" target="S9BE4qP7gg0h5COB0RpV-75">
          <mxGeometry relative="1" as="geometry">
            <mxPoint x="602.934375" y="560" as="sourcePoint" />
            <mxPoint x="441.06562499999995" y="293" as="targetPoint" />
          </mxGeometry>
        </mxCell>
        <mxCell id="S9BE4qP7gg0h5COB0RpV-85" value="192.168.255.5/30" style="edgeLabel;html=1;align=center;verticalAlign=middle;resizable=0;points=[];" vertex="1" connectable="0" parent="S9BE4qP7gg0h5COB0RpV-24">
          <mxGeometry x="0.6004" y="4" relative="1" as="geometry">
            <mxPoint x="5" y="-9" as="offset" />
          </mxGeometry>
        </mxCell>
        <mxCell id="S9BE4qP7gg0h5COB0RpV-86" value="192.168.255.6/30" style="edgeLabel;html=1;align=center;verticalAlign=middle;resizable=0;points=[];" vertex="1" connectable="0" parent="S9BE4qP7gg0h5COB0RpV-24">
          <mxGeometry x="-0.7213" relative="1" as="geometry">
            <mxPoint as="offset" />
          </mxGeometry>
        </mxCell>
        <mxCell id="S9BE4qP7gg0h5COB0RpV-43" value="" style="edgeStyle=none;shape=link;rounded=0;orthogonalLoop=1;jettySize=auto;html=1;" edge="1" parent="1" source="S9BE4qP7gg0h5COB0RpV-77" target="S9BE4qP7gg0h5COB0RpV-38">
          <mxGeometry relative="1" as="geometry">
            <mxPoint x="624.1273040659264" y="613" as="sourcePoint" />
          </mxGeometry>
        </mxCell>
        <mxCell id="S9BE4qP7gg0h5COB0RpV-65" value="192.168.1.129/26" style="edgeLabel;html=1;align=center;verticalAlign=middle;resizable=0;points=[];" vertex="1" connectable="0" parent="S9BE4qP7gg0h5COB0RpV-43">
          <mxGeometry x="0.1243" y="1" relative="1" as="geometry">
            <mxPoint x="6" y="16" as="offset" />
          </mxGeometry>
        </mxCell>
        <mxCell id="S9BE4qP7gg0h5COB0RpV-45" style="edgeStyle=none;shape=link;rounded=0;orthogonalLoop=1;jettySize=auto;html=1;" edge="1" parent="1" source="S9BE4qP7gg0h5COB0RpV-77" target="S9BE4qP7gg0h5COB0RpV-39">
          <mxGeometry relative="1" as="geometry">
            <mxPoint x="646.8562331592404" y="613" as="sourcePoint" />
          </mxGeometry>
        </mxCell>
        <mxCell id="S9BE4qP7gg0h5COB0RpV-64" value="192.168.1.193/26" style="edgeLabel;html=1;align=center;verticalAlign=middle;resizable=0;points=[];" vertex="1" connectable="0" parent="S9BE4qP7gg0h5COB0RpV-45">
          <mxGeometry x="0.102" y="4" relative="1" as="geometry">
            <mxPoint x="-4" y="-12" as="offset" />
          </mxGeometry>
        </mxCell>
        <mxCell id="S9BE4qP7gg0h5COB0RpV-21" style="edgeStyle=none;shape=link;rounded=0;orthogonalLoop=1;jettySize=auto;html=1;" edge="1" parent="1" source="S9BE4qP7gg0h5COB0RpV-75" target="S9BE4qP7gg0h5COB0RpV-73">
          <mxGeometry relative="1" as="geometry">
            <mxPoint x="380" y="250" as="sourcePoint" />
            <mxPoint x="269.98199999999997" y="199.97900000000004" as="targetPoint" />
          </mxGeometry>
        </mxCell>
        <mxCell id="S9BE4qP7gg0h5COB0RpV-92" value="192.168.255.13/30" style="edgeLabel;html=1;align=center;verticalAlign=middle;resizable=0;points=[];" vertex="1" connectable="0" parent="S9BE4qP7gg0h5COB0RpV-21">
          <mxGeometry x="0.8411" y="-1" relative="1" as="geometry">
            <mxPoint x="19" y="10" as="offset" />
          </mxGeometry>
        </mxCell>
        <mxCell id="S9BE4qP7gg0h5COB0RpV-93" value="192.168.255.14/30" style="edgeLabel;html=1;align=center;verticalAlign=middle;resizable=0;points=[];" vertex="1" connectable="0" parent="S9BE4qP7gg0h5COB0RpV-21">
          <mxGeometry x="-0.76" y="1" relative="1" as="geometry">
            <mxPoint x="-27" as="offset" />
          </mxGeometry>
        </mxCell>
        <mxCell id="S9BE4qP7gg0h5COB0RpV-30" value="office hardware&lt;br&gt;192.168.0.32/28" style="ellipse;shape=cloud;whiteSpace=wrap;html=1;rounded=0;shadow=0;comic=0;strokeWidth=1;fontFamily=Verdana;fontSize=12;" vertex="1" parent="1">
          <mxGeometry x="360" y="400" width="120" height="80" as="geometry" />
        </mxCell>
        <mxCell id="S9BE4qP7gg0h5COB0RpV-31" value="directors&lt;br&gt;192.168.0.0/28" style="ellipse;shape=cloud;whiteSpace=wrap;html=1;rounded=0;shadow=0;comic=0;strokeWidth=1;fontFamily=Verdana;fontSize=12;" vertex="1" parent="1">
          <mxGeometry x="170" y="270" width="120" height="80" as="geometry" />
        </mxCell>
        <mxCell id="S9BE4qP7gg0h5COB0RpV-32" value="dev&lt;br&gt;192.168.1.0/25" style="ellipse;shape=cloud;whiteSpace=wrap;html=1;rounded=0;shadow=0;comic=0;strokeWidth=1;fontFamily=Verdana;fontSize=12;" vertex="1" parent="1">
          <mxGeometry x="450" y="580" width="120" height="80" as="geometry" />
        </mxCell>
        <mxCell id="S9BE4qP7gg0h5COB0RpV-52" value="" style="edgeStyle=none;shape=link;rounded=0;orthogonalLoop=1;jettySize=auto;html=1;" edge="1" parent="1" source="S9BE4qP7gg0h5COB0RpV-33" target="S9BE4qP7gg0h5COB0RpV-76">
          <mxGeometry relative="1" as="geometry">
            <mxPoint x="210" y="585" as="targetPoint" />
          </mxGeometry>
        </mxCell>
        <mxCell id="S9BE4qP7gg0h5COB0RpV-69" value="192.168.2.1/26" style="edgeLabel;html=1;align=center;verticalAlign=middle;resizable=0;points=[];" vertex="1" connectable="0" parent="S9BE4qP7gg0h5COB0RpV-52">
          <mxGeometry x="-0.0109" relative="1" as="geometry">
            <mxPoint as="offset" />
          </mxGeometry>
        </mxCell>
        <mxCell id="S9BE4qP7gg0h5COB0RpV-33" value="dev&lt;br&gt;192.168.2.0/26" style="ellipse;shape=cloud;whiteSpace=wrap;html=1;rounded=0;shadow=0;comic=0;strokeWidth=1;fontFamily=Verdana;fontSize=12;" vertex="1" parent="1">
          <mxGeometry y="580" width="120" height="80" as="geometry" />
        </mxCell>
        <mxCell id="S9BE4qP7gg0h5COB0RpV-53" style="edgeStyle=none;shape=link;rounded=0;orthogonalLoop=1;jettySize=auto;html=1;" edge="1" parent="1" source="S9BE4qP7gg0h5COB0RpV-34" target="S9BE4qP7gg0h5COB0RpV-76">
          <mxGeometry relative="1" as="geometry">
            <mxPoint x="229.55045871559628" y="603" as="targetPoint" />
          </mxGeometry>
        </mxCell>
        <mxCell id="S9BE4qP7gg0h5COB0RpV-70" value="192.168.2.65/28" style="edgeLabel;html=1;align=center;verticalAlign=middle;resizable=0;points=[];" vertex="1" connectable="0" parent="S9BE4qP7gg0h5COB0RpV-53">
          <mxGeometry x="-0.4646" y="2" relative="1" as="geometry">
            <mxPoint y="1" as="offset" />
          </mxGeometry>
        </mxCell>
        <mxCell id="S9BE4qP7gg0h5COB0RpV-34" value="test servers&lt;div&gt;192.168.2.64/26&lt;br&gt;&lt;/div&gt;" style="ellipse;shape=cloud;whiteSpace=wrap;html=1;rounded=0;shadow=0;comic=0;strokeWidth=1;fontFamily=Verdana;fontSize=12;" vertex="1" parent="1">
          <mxGeometry x="70" y="660" width="120" height="80" as="geometry" />
        </mxCell>
        <mxCell id="S9BE4qP7gg0h5COB0RpV-55" style="edgeStyle=none;shape=link;rounded=0;orthogonalLoop=1;jettySize=auto;html=1;" edge="1" parent="1" source="S9BE4qP7gg0h5COB0RpV-35" target="S9BE4qP7gg0h5COB0RpV-76">
          <mxGeometry relative="1" as="geometry">
            <mxPoint x="250.4324324324325" y="603" as="targetPoint" />
          </mxGeometry>
        </mxCell>
        <mxCell id="S9BE4qP7gg0h5COB0RpV-71" value="&lt;span style=&quot;font-family: Verdana; font-size: 12px; text-wrap: wrap; background-color: rgb(251, 251, 251);&quot;&gt;192.168.2.129/26&lt;/span&gt;" style="edgeLabel;html=1;align=center;verticalAlign=middle;resizable=0;points=[];" vertex="1" connectable="0" parent="S9BE4qP7gg0h5COB0RpV-55">
          <mxGeometry x="-0.3875" y="-1" relative="1" as="geometry">
            <mxPoint y="12" as="offset" />
          </mxGeometry>
        </mxCell>
        <mxCell id="S9BE4qP7gg0h5COB0RpV-35" value="managers&lt;br&gt;192.168.2.128/26" style="ellipse;shape=cloud;whiteSpace=wrap;html=1;rounded=0;shadow=0;comic=0;strokeWidth=1;fontFamily=Verdana;fontSize=12;" vertex="1" parent="1">
          <mxGeometry x="212" y="620" width="120" height="80" as="geometry" />
        </mxCell>
        <mxCell id="S9BE4qP7gg0h5COB0RpV-54" style="edgeStyle=none;shape=link;rounded=0;orthogonalLoop=1;jettySize=auto;html=1;" edge="1" parent="1" source="S9BE4qP7gg0h5COB0RpV-36" target="S9BE4qP7gg0h5COB0RpV-76">
          <mxGeometry relative="1" as="geometry">
            <mxPoint x="279.5859030837005" y="603" as="targetPoint" />
          </mxGeometry>
        </mxCell>
        <mxCell id="S9BE4qP7gg0h5COB0RpV-72" value="192.168.2.193/26" style="edgeLabel;html=1;align=center;verticalAlign=middle;resizable=0;points=[];" vertex="1" connectable="0" parent="S9BE4qP7gg0h5COB0RpV-54">
          <mxGeometry x="0.0564" relative="1" as="geometry">
            <mxPoint as="offset" />
          </mxGeometry>
        </mxCell>
        <mxCell id="S9BE4qP7gg0h5COB0RpV-36" value="office hardware&lt;br&gt;192.168.2.192/26" style="ellipse;shape=cloud;whiteSpace=wrap;html=1;rounded=0;shadow=0;comic=0;strokeWidth=1;fontFamily=Verdana;fontSize=12;" vertex="1" parent="1">
          <mxGeometry x="330" y="580" width="120" height="80" as="geometry" />
        </mxCell>
        <mxCell id="S9BE4qP7gg0h5COB0RpV-38" value="test servers&lt;br&gt;192.168.1.128/26" style="ellipse;shape=cloud;whiteSpace=wrap;html=1;rounded=0;shadow=0;comic=0;strokeWidth=1;fontFamily=Verdana;fontSize=12;" vertex="1" parent="1">
          <mxGeometry x="590" y="640" width="120" height="80" as="geometry" />
        </mxCell>
        <mxCell id="S9BE4qP7gg0h5COB0RpV-39" value="office hardware&lt;br&gt;192.168.1.192/26" style="ellipse;shape=cloud;whiteSpace=wrap;html=1;rounded=0;shadow=0;comic=0;strokeWidth=1;fontFamily=Verdana;fontSize=12;" vertex="1" parent="1">
          <mxGeometry x="710" y="590" width="120" height="80" as="geometry" />
        </mxCell>
        <mxCell id="S9BE4qP7gg0h5COB0RpV-47" style="edgeStyle=none;shape=link;rounded=0;orthogonalLoop=1;jettySize=auto;html=1;entryX=0.558;entryY=0.105;entryDx=0;entryDy=0;entryPerimeter=0;" edge="1" parent="1" source="S9BE4qP7gg0h5COB0RpV-77" target="S9BE4qP7gg0h5COB0RpV-32">
          <mxGeometry relative="1" as="geometry">
            <mxPoint x="598.4991660348749" y="613" as="sourcePoint" />
          </mxGeometry>
        </mxCell>
        <mxCell id="S9BE4qP7gg0h5COB0RpV-66" value="192.168.1.0/25" style="edgeLabel;html=1;align=center;verticalAlign=middle;resizable=0;points=[];" vertex="1" connectable="0" parent="S9BE4qP7gg0h5COB0RpV-47">
          <mxGeometry x="0.1136" y="2" relative="1" as="geometry">
            <mxPoint x="-2" y="-6" as="offset" />
          </mxGeometry>
        </mxCell>
        <mxCell id="S9BE4qP7gg0h5COB0RpV-48" style="edgeStyle=none;shape=link;rounded=0;orthogonalLoop=1;jettySize=auto;html=1;entryX=0.875;entryY=0.5;entryDx=0;entryDy=0;entryPerimeter=0;" edge="1" parent="1" source="S9BE4qP7gg0h5COB0RpV-75" target="S9BE4qP7gg0h5COB0RpV-31">
          <mxGeometry relative="1" as="geometry">
            <mxPoint x="386" y="276.51917177914106" as="sourcePoint" />
          </mxGeometry>
        </mxCell>
        <mxCell id="S9BE4qP7gg0h5COB0RpV-81" value="192.168.0.1/28" style="edgeLabel;html=1;align=center;verticalAlign=middle;resizable=0;points=[];" vertex="1" connectable="0" parent="S9BE4qP7gg0h5COB0RpV-48">
          <mxGeometry x="-0.071" y="1" relative="1" as="geometry">
            <mxPoint as="offset" />
          </mxGeometry>
        </mxCell>
        <mxCell id="S9BE4qP7gg0h5COB0RpV-50" value="wifi&lt;br&gt;192.168.0.64/26" style="ellipse;shape=cloud;whiteSpace=wrap;html=1;rounded=0;shadow=0;comic=0;strokeWidth=1;fontFamily=Verdana;fontSize=12;" vertex="1" parent="1">
          <mxGeometry x="650" y="293" width="120" height="80" as="geometry" />
        </mxCell>
        <mxCell id="S9BE4qP7gg0h5COB0RpV-57" value="" style="edgeStyle=none;shape=link;rounded=0;orthogonalLoop=1;jettySize=auto;html=1;" edge="1" parent="1" source="S9BE4qP7gg0h5COB0RpV-56" target="S9BE4qP7gg0h5COB0RpV-35">
          <mxGeometry relative="1" as="geometry" />
        </mxCell>
        <mxCell id="S9BE4qP7gg0h5COB0RpV-68" value="192.168.2.130/26" style="edgeLabel;html=1;align=center;verticalAlign=middle;resizable=0;points=[];" vertex="1" connectable="0" parent="S9BE4qP7gg0h5COB0RpV-57">
          <mxGeometry x="-0.1" y="2" relative="1" as="geometry">
            <mxPoint x="2" y="-3" as="offset" />
          </mxGeometry>
        </mxCell>
        <mxCell id="S9BE4qP7gg0h5COB0RpV-56" value="office1Server" style="shape=mxgraph.cisco.servers.fileserver;sketch=0;html=1;pointerEvents=1;dashed=0;fillColor=#036897;strokeColor=#ffffff;strokeWidth=2;verticalLabelPosition=bottom;verticalAlign=top;align=center;outlineConnect=0;fontSize=24;fontStyle=1" vertex="1" parent="1">
          <mxGeometry x="250.5" y="750" width="43" height="62" as="geometry" />
        </mxCell>
        <mxCell id="S9BE4qP7gg0h5COB0RpV-60" value="" style="edgeStyle=none;shape=link;rounded=0;orthogonalLoop=1;jettySize=auto;html=1;" edge="1" parent="1" source="S9BE4qP7gg0h5COB0RpV-59" target="S9BE4qP7gg0h5COB0RpV-32">
          <mxGeometry relative="1" as="geometry" />
        </mxCell>
        <mxCell id="S9BE4qP7gg0h5COB0RpV-67" value="192.168.1.2/25" style="edgeLabel;html=1;align=center;verticalAlign=middle;resizable=0;points=[];" vertex="1" connectable="0" parent="S9BE4qP7gg0h5COB0RpV-60">
          <mxGeometry x="-0.0444" relative="1" as="geometry">
            <mxPoint y="18" as="offset" />
          </mxGeometry>
        </mxCell>
        <mxCell id="S9BE4qP7gg0h5COB0RpV-59" value="office2Server" style="shape=mxgraph.cisco.servers.fileserver;sketch=0;html=1;pointerEvents=1;dashed=0;fillColor=#036897;strokeColor=#ffffff;strokeWidth=2;verticalLabelPosition=bottom;verticalAlign=top;align=center;outlineConnect=0;fontSize=24;fontStyle=1" vertex="1" parent="1">
          <mxGeometry x="488.5" y="750" width="43" height="62" as="geometry" />
        </mxCell>
        <mxCell id="S9BE4qP7gg0h5COB0RpV-61" value="centralServer" style="shape=mxgraph.cisco.servers.fileserver;sketch=0;html=1;pointerEvents=1;dashed=0;fillColor=#036897;strokeColor=#ffffff;strokeWidth=2;verticalLabelPosition=bottom;verticalAlign=top;align=center;outlineConnect=0;fontSize=24;fontStyle=1" vertex="1" parent="1">
          <mxGeometry x="70" y="338" width="43" height="62" as="geometry" />
        </mxCell>
        <mxCell id="S9BE4qP7gg0h5COB0RpV-62" style="edgeStyle=none;shape=link;rounded=0;orthogonalLoop=1;jettySize=auto;html=1;entryX=0.31;entryY=0.8;entryDx=0;entryDy=0;entryPerimeter=0;" edge="1" parent="1" source="S9BE4qP7gg0h5COB0RpV-61" target="S9BE4qP7gg0h5COB0RpV-31">
          <mxGeometry relative="1" as="geometry" />
        </mxCell>
        <mxCell id="S9BE4qP7gg0h5COB0RpV-79" value="192.168.0.2/28" style="edgeLabel;html=1;align=center;verticalAlign=middle;resizable=0;points=[];" vertex="1" connectable="0" parent="S9BE4qP7gg0h5COB0RpV-62">
          <mxGeometry x="-0.3439" relative="1" as="geometry">
            <mxPoint x="16" y="-3" as="offset" />
          </mxGeometry>
        </mxCell>
        <mxCell id="S9BE4qP7gg0h5COB0RpV-73" value="inet2Router" style="shape=mxgraph.cisco.routers.router;sketch=0;html=1;pointerEvents=1;dashed=0;fillColor=#036897;strokeColor=#ffffff;strokeWidth=2;verticalLabelPosition=middle;verticalAlign=middle;align=right;outlineConnect=0;labelPosition=left;fontSize=24;fontStyle=1" vertex="1" parent="1">
          <mxGeometry x="150" y="130" width="78" height="53" as="geometry" />
        </mxCell>
        <mxCell id="S9BE4qP7gg0h5COB0RpV-74" value="inetRouter" style="shape=mxgraph.cisco.routers.router;sketch=0;html=1;pointerEvents=1;dashed=0;fillColor=#036897;strokeColor=#ffffff;strokeWidth=2;verticalLabelPosition=middle;verticalAlign=middle;align=left;outlineConnect=0;labelPosition=right;fontSize=24;fontStyle=1" vertex="1" parent="1">
          <mxGeometry x="640" y="130" width="78" height="53" as="geometry" />
        </mxCell>
        <mxCell id="S9BE4qP7gg0h5COB0RpV-75" value="centralRouter" style="shape=mxgraph.cisco.routers.router;sketch=0;html=1;pointerEvents=1;dashed=0;fillColor=#036897;strokeColor=#ffffff;strokeWidth=2;verticalLabelPosition=top;verticalAlign=bottom;align=center;outlineConnect=0;labelPosition=center;fontSize=24;fontStyle=1" vertex="1" parent="1">
          <mxGeometry x="386" y="240" width="78" height="53" as="geometry" />
        </mxCell>
        <mxCell id="S9BE4qP7gg0h5COB0RpV-76" value="office1Router" style="shape=mxgraph.cisco.routers.router;sketch=0;html=1;pointerEvents=1;dashed=0;fillColor=#036897;strokeColor=#ffffff;strokeWidth=2;verticalLabelPosition=middle;verticalAlign=middle;align=right;outlineConnect=0;labelPosition=left;fontSize=24;fontStyle=1" vertex="1" parent="1">
          <mxGeometry x="220" y="460" width="78" height="53" as="geometry" />
        </mxCell>
        <mxCell id="S9BE4qP7gg0h5COB0RpV-77" value="office2Router" style="shape=mxgraph.cisco.routers.router;sketch=0;html=1;pointerEvents=1;dashed=0;fillColor=#036897;strokeColor=#ffffff;strokeWidth=2;verticalLabelPosition=middle;verticalAlign=middle;align=left;outlineConnect=0;labelPosition=right;fontSize=24;fontStyle=1" vertex="1" parent="1">
          <mxGeometry x="580" y="460" width="78" height="53" as="geometry" />
        </mxCell>
      </root>
    </mxGraphModel>
  </diagram>
</mxfile>
